<?xml version="1.0" encoding="UTF-8" standalone="no"?>
<svg
   xmlns:dc="http://purl.org/dc/elements/1.1/"
   xmlns:cc="http://creativecommons.org/ns#"
   xmlns:rdf="http://www.w3.org/1999/02/22-rdf-syntax-ns#"
   xmlns:svg="http://www.w3.org/2000/svg"
   xmlns="http://www.w3.org/2000/svg"
   xmlns:sodipodi="http://sodipodi.sourceforge.net/DTD/sodipodi-0.dtd"
   xmlns:inkscape="http://www.inkscape.org/namespaces/inkscape"
   version="1.1"
   x="0px"
   y="0px"
   viewBox="0 0 100 125"
   style="enable-background:new 0 0 100 100;"
   xml:space="preserve"
   id="svg10"
   sodipodi:docname="logo.svg"
   inkscape:version="0.92.2 (5c3e80d, 2017-08-06)"><metadata
     id="metadata16"><rdf:RDF><cc:Work
         rdf:about=""><dc:format>image/svg+xml</dc:format><dc:type
           rdf:resource="http://purl.org/dc/dcmitype/StillImage" /></cc:Work></rdf:RDF></metadata><defs
     id="defs14" /><sodipodi:namedview
     pagecolor="#ffffff"
     bordercolor="#666666"
     borderopacity="1"
     objecttolerance="10"
     gridtolerance="10"
     guidetolerance="10"
     inkscape:pageopacity="0"
     inkscape:pageshadow="2"
     inkscape:window-width="1920"
     inkscape:window-height="1017"
     id="namedview12"
     showgrid="false"
     inkscape:zoom="1.888"
     inkscape:cx="-15.942797"
     inkscape:cy="62.5"
     inkscape:window-x="1272"
     inkscape:window-y="-8"
     inkscape:window-maximized="1"
     inkscape:current-layer="svg10" /><g
     id="g8"
     transform="matrix(1.2669879,0,0,1.2669879,-13.276929,-1.3739223)"
     inkscape:export-xdpi="100.06885"
     inkscape:export-ydpi="100.06885"><path
       d="M 54,13.5 C 48.4,5.6 42.2,1.7 41.9,1.6 41.3,1.2 40.6,1.4 40.2,2 39.8,2.6 40,3.3 40.6,3.7 c 0.1,0.1 10.6,7 11.8,18.5 0.9,8.3 -3.2,17 -12,25.8 -9.2,9.2 -13.5,18.6 -12.8,27.9 1.1,13.7 12.4,22.1 12.9,22.5 0.2,0.2 0.5,0.2 0.7,0.2 0.4,0 0.7,-0.1 0.9,-0.4 C 42.5,97.7 42.5,97 42,96.5 37.5,92 35.4,87.9 35.5,84.1 35.7,78 41.3,72.9 47.3,67.5 53.2,62.1 59.4,56.6 60.9,49.5 64.4,32.8 59.1,20.7 54,13.5 Z"
       id="path2"
       inkscape:connector-curvature="0" /><path
       d="m 69.4,35.5 c -0.6,-0.4 -1.3,-0.2 -1.7,0.4 -0.4,0.6 -0.2,1.3 0.4,1.7 0.1,0 5.4,3.6 6,9.4 0.4,4.2 -1.6,8.6 -6.2,13.1 -5,5 -7.3,10.1 -6.9,15.2 0.6,7.5 6.8,12.1 7.1,12.3 0.2,0.2 0.5,0.2 0.7,0.2 0.4,0 0.7,-0.1 0.9,-0.4 0.4,-0.5 0.4,-1.2 -0.1,-1.7 -2.3,-2.3 -3.3,-4.3 -3.3,-6.1 0.1,-3 3,-5.6 6,-8.4 3.2,-2.9 6.5,-5.9 7.3,-9.9 C 83.3,44.2 69.5,35.6 69.4,35.5 Z"
       id="path4"
       inkscape:connector-curvature="0" /><path
       d="m 28.4,55.1 c -2.3,-2.3 -3.3,-4.3 -3.3,-6.1 0.1,-3 3,-5.6 6,-8.4 3.2,-2.9 6.5,-5.9 7.3,-9.9 C 42.1,13.5 28.3,4.9 28.1,4.8 27.5,4.4 26.8,4.6 26.4,5.2 26,5.8 26.2,6.5 26.8,6.9 c 0.1,0 5.4,3.5 6,9.4 0.4,4.2 -1.6,8.6 -6.2,13.2 -5,5 -7.3,10.1 -6.9,15.2 0.6,7.5 6.8,12.1 7.1,12.3 0.2,0.2 0.5,0.2 0.7,0.2 0.4,0 0.7,-0.1 0.9,-0.4 0.5,-0.5 0.4,-1.3 0,-1.7 z"
       id="path6"
       inkscape:connector-curvature="0" /></g></svg>